<?xml version="1.0" encoding="UTF-8"?>
<svg width="512" height="512" viewBox="0 0 512 512" fill="none" xmlns="http://www.w3.org/2000/svg">
  <!-- Shopping Cart -->
  <path d="M100 150 C100 150, 400 150, 400 150 C400 150, 380 300, 380 300 C380 300, 120 300, 120 300 C120 300, 100 150, 100 150 Z" fill="#1E40AF" />
  <path d="M140 300 L120 150 L100 150 C100 150, 80 100, 120 100 L420 100 C460 100, 440 150, 440 150 L400 150 L380 300 L140 300 Z" fill="#2563EB" />
  <!-- Wheels -->
  <circle cx="180" cy="350" r="30" fill="#1E40AF"/>
  <circle cx="340" cy="350" r="30" fill="#1E40AF"/>
  <!-- Graduation Cap -->
  <path d="M220 80 L300 80 L320 120 L200 120 Z" fill="#059669"/>
  <path d="M240 60 L280 60 L300 80 L220 80 Z" fill="#10B981"/>
  <!-- Tassel -->
  <path d="M290 80 Q300 90, 310 120" stroke="#FCD34D" stroke-width="4"/>
  <circle cx="310" cy="120" r="4" fill="#FCD34D"/>
  <!-- Glow effect -->
  <defs>
    <filter id="glow" x="-50%" y="-50%" width="200%" height="200%">
      <feGaussianBlur stdDeviation="15" result="coloredBlur"/>
      <feMerge>
        <feMergeNode in="coloredBlur"/>
        <feMergeNode in="SourceGraphic"/>
      </feMerge>
    </filter>
  </defs>
  <g filter="url(#glow)">
    <path d="M100 150 C100 150, 400 150, 400 150 C400 150, 380 300, 380 300 C380 300, 120 300, 120 300 C120 300, 100 150, 100 150 Z" fill="#1E40AF" opacity="0.3"/>
  </g>
</svg> 